<svg width="32" height="32" viewBox="0 0 32 32" fill="none" xmlns="http://www.w3.org/2000/svg">
<g clip-path="url(#clip0_13_73)">
<path d="M30.9007 3.24038L16.8082 30.5747C16.5172 31.1391 15.7697 31.1424 15.4744 30.5808L1.1025 3.24292C0.780704 2.631 1.26317 1.88967 1.90254 2.01373L16.0102 4.74884C16.1002 4.76629 16.1923 4.76611 16.2823 4.74833L30.0948 2.01754C30.7321 1.89157 31.2168 2.62718 30.9007 3.24038Z" fill="url(#paint0_linear_13_73)"/>
<path d="M25.091 0.00785783L14.0103 2.17913C13.9217 2.19647 13.8415 2.24275 13.7821 2.31068C13.7227 2.37861 13.6876 2.46435 13.6823 2.55441L13.0007 14.0664C12.997 14.1296 13.008 14.1927 13.0329 14.2509C13.0578 14.309 13.0959 14.3605 13.1443 14.4013C13.1926 14.4422 13.2497 14.4712 13.3112 14.486C13.3727 14.5009 13.4368 14.5013 13.4984 14.487L16.5835 13.7751C16.8721 13.7085 17.1329 13.9627 17.0736 14.253L16.157 18.7413C16.0954 19.0434 16.3789 19.3016 16.6739 19.212L18.5794 18.6331C18.8748 18.5435 19.1587 18.8024 19.0962 19.1048L17.6396 26.1548C17.5485 26.5959 18.135 26.8363 18.3796 26.4583L18.5431 26.2058L27.5723 8.18616C27.7236 7.88446 27.4627 7.54043 27.1315 7.60443L23.9558 8.21729C23.6575 8.27482 23.4036 7.9969 23.4878 7.70504L25.5604 0.519982C25.6447 0.227375 25.3897 -0.0506636 25.091 0.00785783Z" fill="url(#paint1_linear_13_73)"/>
<path d="M9.65586 3.57197L9.42113 3.7281C9.26959 3.73635 9.11944 3.76148 8.97349 3.80301C8.51092 3.93006 7.96738 4.19849 7.35881 4.60328C6.75023 5.00806 6.29283 5.4054 5.99824 5.78196C5.76279 6.08412 5.70372 6.28386 5.6895 6.35569C5.50613 6.38185 5.33096 6.44863 5.17683 6.55114C5.02271 6.65366 4.89354 6.7893 4.79882 6.94812C4.72704 6.93379 4.51937 6.91117 4.14926 7.01179C3.68712 7.13856 3.14358 7.40698 2.535 7.81177C1.92643 8.21655 1.46903 8.61389 1.17443 8.99046C1.07987 9.1089 0.998877 9.23751 0.932955 9.3739L0.697363 9.5306C0.605981 9.59138 0.542543 9.68589 0.521004 9.79334C0.499466 9.90078 0.521592 10.0124 0.582515 10.1035C0.643437 10.1947 0.738166 10.258 0.845862 10.2795C0.953558 10.301 1.0654 10.2789 1.15678 10.2181L1.16044 10.2157C1.83464 11.1781 2.34402 11.6871 2.87457 11.9379C3.21228 12.1029 3.59475 12.1536 3.96395 12.0822C4.30255 12.0196 4.66197 11.8597 5.06209 11.5936C5.58215 11.2477 6.26818 10.6762 6.22223 9.71182C6.19897 9.2264 6.00609 8.6859 5.5804 7.95018C5.56933 7.90081 5.54925 7.85388 5.52118 7.81174C5.46026 7.72057 5.43813 7.60899 5.45967 7.50154C5.48121 7.3941 5.54465 7.29959 5.63603 7.23881C5.72741 7.17802 5.83925 7.15595 5.94695 7.17744C6.05465 7.19893 6.14938 7.26222 6.2103 7.35339C6.23845 7.39527 6.27404 7.43165 6.31532 7.46074C6.83231 8.13573 7.2582 8.52124 7.69838 8.72936C8.03609 8.89445 8.41856 8.94513 8.78776 8.87373C9.12636 8.81114 9.48578 8.65121 9.88589 8.38508C10.406 8.03916 11.092 7.46772 11.046 6.50332C11.0181 5.91828 10.7435 5.2531 10.1119 4.26236L10.1156 4.25992C10.207 4.19914 10.2704 4.10463 10.2919 3.99718C10.3135 3.88973 10.2913 3.77815 10.2304 3.68698C10.1695 3.59581 10.0748 3.53252 9.96707 3.51103C9.85937 3.48954 9.74753 3.51162 9.65615 3.5724L9.65586 3.57197Z" fill="black"/>
<path d="M12.2975 8.27076C9.84926 11.6017 8.77064 12.3191 4.02815 13.771C4.91273 14.3176 8.71364 14.6269 10.1803 13.6514C11.978 12.4557 12.6057 9.76823 12.2975 8.27076Z" fill="#D85C5D"/>
<path d="M4.02815 13.771C8.77064 12.3191 9.84926 11.6017 12.2975 8.27076M4.02815 13.771C4.91273 14.3176 8.71364 14.6269 10.1803 13.6514C11.978 12.4557 12.6057 9.76823 12.2975 8.27076M4.02815 13.771C3.56873 14.0766 2.60397 14.3211 2.42019 12.8543M12.2975 8.27076C13.3312 7.58323 12.9407 7.1478 12.2975 6.78112" stroke="black" stroke-width="0.5"/>
<path d="M0.434675 3.13858L-0.0547597 5.75841L0.993409 6.66487L-0.00910447 7.54393L0.352877 7.95675L1.49861 6.95211L6.08152 2.93356L4.92003 1.03113L2.29649 1.50604L0.434675 3.13858Z" fill="white"/>
<path d="M1.2403 5.13962L1.65354 5.61822L3.80847 3.75752L3.39522 3.27893C2.40156 3.46857 1.59324 4.20795 1.2403 5.13962Z" fill="black"/>
<path d="M8 6L10.5 6.5" stroke="white"/>
<path d="M3 9L5.5 9.5" stroke="white"/>
</g>
<defs>
<linearGradient id="paint0_linear_13_73" x1="1" y1="2" x2="63.2816" y2="23.574" gradientUnits="userSpaceOnUse">
<stop stop-color="#41D1FF"/>
<stop offset="1" stop-color="#BD34FE"/>
</linearGradient>
<linearGradient id="paint1_linear_13_73" x1="646.998" y1="59.74" x2="979.211" y2="2338.64" gradientUnits="userSpaceOnUse">
<stop stop-color="#FFEA83"/>
<stop offset="0.08333" stop-color="#FFDD35"/>
<stop offset="1" stop-color="#FFA800"/>
</linearGradient>
<clipPath id="clip0_13_73">
<rect width="31.88" height="32" fill="white"/>
</clipPath>
</defs>
</svg>
